<?xml version="1.0" encoding="UTF-8" standalone="no"?>
<!-- Created with Inkscape (http://www.inkscape.org/) -->

<svg
   xmlns:dc="http://purl.org/dc/elements/1.1/"
   xmlns:cc="http://creativecommons.org/ns#"
   xmlns:rdf="http://www.w3.org/1999/02/22-rdf-syntax-ns#"
   xmlns:svg="http://www.w3.org/2000/svg"
   xmlns="http://www.w3.org/2000/svg"
   xmlns:sodipodi="http://sodipodi.sourceforge.net/DTD/sodipodi-0.dtd"
   xmlns:inkscape="http://www.inkscape.org/namespaces/inkscape"
   width="210mm"
   height="297mm"
   viewBox="0 0 744.09448819 1052.3622047"
   id="svg7588"
   version="1.1"
   inkscape:version="0.91 r13725"
   sodipodi:docname="education.svg">
  <defs
     id="defs7590" />
  <sodipodi:namedview
     id="base"
     pagecolor="#ffffff"
     bordercolor="#666666"
     borderopacity="1.0"
     inkscape:pageopacity="0.0"
     inkscape:pageshadow="2"
     inkscape:zoom="0.35"
     inkscape:cx="-762.14286"
     inkscape:cy="520"
     inkscape:document-units="px"
     inkscape:current-layer="layer1"
     showgrid="false"
     inkscape:window-width="1920"
     inkscape:window-height="1138"
     inkscape:window-x="-8"
     inkscape:window-y="-8"
     inkscape:window-maximized="1" />
  <metadata
     id="metadata7593">
    <rdf:RDF>
      <cc:Work
         rdf:about="">
        <dc:format>image/svg+xml</dc:format>
        <dc:type
           rdf:resource="http://purl.org/dc/dcmitype/StillImage" />
        <dc:title />
      </cc:Work>
    </rdf:RDF>
  </metadata>
  <g
     inkscape:label="Layer 1"
     inkscape:groupmode="layer"
     id="layer1">
    <g
       id="g7624"
       transform="translate(752.15764,-12.577105)">
      <g
         transform="matrix(1.25,0,0,1.25,-753.40764,8.8271047)"
         id="g5794">
        <path
           inkscape:connector-curvature="0"
           id="path5796"
           style="fill:#F2F3F5;fill-opacity:1;fill-rule:nonzero;stroke:none"
           d="m 64.923592,165.68556 0,63.92356 111.866298,61.04704 0,-21.59601 0,-90.85313 0,48.52554 -111.866298,-61.047 z M 176.78989,3 1,98.885391 l 175.78989,95.885359 0,-74.1849 0,-21.700459 0,-95.885391 z" />
      </g>
      <g
         transform="matrix(0.66239901,1.0600601,-1.0600601,0.66239901,-548.7431,143.298)"
         id="g5802">
        <path
           inkscape:connector-curvature="0"
           id="path5804"
           style="fill:#ffffff;fill-opacity:1;fill-rule:nonzero;stroke:none"
           d="M 0,8 C 0,5.7908607 0.78104854,3.9052427 2.3431456,2.3431456 3.9052427,0.78104854 5.7908607,0 8,0 l 142,0 c 2.20914,0 4.09476,0.78104854 5.65684,2.3431456 C 157.21893,3.9052427 157.99998,5.7908607 158,8 c -2e-5,2.209139 -0.78107,4.094757 -2.34316,5.656854 C 154.09476,15.21895 152.20914,15.999999 150,16 L 8,16 C 5.7908607,15.999999 3.9052427,15.21895 2.3431456,13.656854 0.78104854,12.094757 0,10.209139 0,8 Z" />
      </g>
      <g
         transform="matrix(0.66239901,1.0600601,-1.0600601,0.66239901,-629.47934,143.6715)"
         id="g5806">
        <path
           inkscape:connector-curvature="0"
           id="path5808"
           style="fill:#ffffff;fill-opacity:1;fill-rule:nonzero;stroke:none"
           d="M 0,8 C 0,5.7908607 0.78104854,3.9052427 2.3431456,2.3431456 3.9052427,0.78104854 5.7908607,0 8,0 l 95,0 c 2.20914,0 4.09476,0.78104854 5.65685,2.3431456 C 110.21895,3.9052427 111,5.7908607 111,8 c 0,2.209139 -0.78105,4.094757 -2.34315,5.656854 C 107.09476,15.21895 105.20914,15.999999 103,16 L 8,16 C 5.7908607,15.999999 3.9052427,15.21895 2.3431456,13.656854 0.78104854,12.094757 0,10.209139 0,8 Z" />
      </g>
      <g
         transform="matrix(0.66239901,1.0600601,-1.0600601,0.66239901,-571.74512,108.2491)"
         id="g5810">
        <path
           inkscape:connector-curvature="0"
           id="path5812"
           style="fill:#ffffff;fill-opacity:1;fill-rule:nonzero;stroke:none"
           d="M 0,8 C 0,5.7908607 0.78104854,3.9052427 2.3431456,2.3431456 3.9052427,0.78104854 5.7908607,0 8,0 l 7,0 c 2.209139,0 4.094757,0.78104854 5.656855,2.3431456 C 22.218952,3.9052427 23,5.7908607 23,8 23,10.209139 22.218952,12.094757 20.656855,13.656854 19.094757,15.21895 17.209139,15.999999 15,16 L 8,16 C 5.7908607,15.999999 3.9052427,15.21895 2.3431456,13.656854 0.78104854,12.094757 0,10.209139 0,8 Z" />
      </g>
      <g
         transform="matrix(0.66239901,1.0600601,-1.0600601,0.66239901,-544.24512,280.7491)"
         id="g5814">
        <path
           inkscape:connector-curvature="0"
           id="path5816"
           style="fill:#ffffff;fill-opacity:1;fill-rule:nonzero;stroke:none"
           d="M 0,8 C 0,5.7908607 0.78104854,3.9052427 2.3431456,2.3431456 3.9052427,0.78104854 5.7908607,0 8,0 l 7,0 c 2.209139,0 4.094757,0.78104854 5.656855,2.3431456 C 22.218952,3.9052427 23,5.7908607 23,8 23,10.209139 22.218952,12.094757 20.656855,13.656854 19.094757,15.21895 17.209139,15.999999 15,16 L 8,16 C 5.7908607,15.999999 3.9052427,15.21895 2.3431456,13.656854 0.78104854,12.094757 0,10.209139 0,8 Z" />
      </g>
      <g
         transform="matrix(0.60601205,-1.0932746,1.0932746,0.60601205,-740.38372,152.3067)"
         id="g5850">
        <path
           inkscape:connector-curvature="0"
           id="path5852"
           style="fill:#14c3fd;fill-opacity:1;fill-rule:nonzero;stroke:none"
           d="M 0,82 0,3 C 0,1 1,0 3,0 5,0 6,1 6,3 L 6,82 C 6,84 5,85 3,85 1,85 0,84 0,82 Z" />
      </g>
    </g>
  </g>
</svg>
