<?xml version="1.0" encoding="UTF-8" standalone="no"?>
<!-- Generator: Adobe Illustrator 16.0.0, SVG Export Plug-In . SVG Version: 6.00 Build 0)  -->

<svg
   xmlns:dc="http://purl.org/dc/elements/1.1/"
   xmlns:cc="http://creativecommons.org/ns#"
   xmlns:rdf="http://www.w3.org/1999/02/22-rdf-syntax-ns#"
   xmlns:svg="http://www.w3.org/2000/svg"
   xmlns="http://www.w3.org/2000/svg"
   xmlns:sodipodi="http://sodipodi.sourceforge.net/DTD/sodipodi-0.dtd"
   xmlns:inkscape="http://www.inkscape.org/namespaces/inkscape"
   version="1.1"
   id="Capa_1"
   x="0px"
   y="0px"
   width="510px"
   height="510px"
   viewBox="0 0 510 510"
   style="enable-background:new 0 0 510 510;"
   xml:space="preserve"
   inkscape:version="0.91 r13725"
   sodipodi:docname="linkedin.svg"><metadata
     id="metadata42"><rdf:RDF><cc:Work
         rdf:about=""><dc:format>image/svg+xml</dc:format><dc:type
           rdf:resource="http://purl.org/dc/dcmitype/StillImage" /></cc:Work></rdf:RDF></metadata><defs
     id="defs40" /><sodipodi:namedview
     pagecolor="#ffffff"
     bordercolor="#666666"
     borderopacity="1"
     objecttolerance="10"
     gridtolerance="10"
     guidetolerance="10"
     inkscape:pageopacity="0"
     inkscape:pageshadow="2"
     inkscape:window-width="1538"
     inkscape:window-height="861"
     id="namedview38"
     showgrid="false"
     inkscape:zoom="0.4627451"
     inkscape:cx="255"
     inkscape:cy="255"
     inkscape:window-x="0"
     inkscape:window-y="0"
     inkscape:window-maximized="0"
     inkscape:current-layer="Capa_1" /><path
     d="M 38.7,0 4.3,0 C 1.935,0 0,1.935 0,4.3 L 0,38.7 C 0,41.065 1.935,43 4.3,43 l 34.4,0 C 41.065,43 43,41.065 43,38.7 L 43,4.3 C 43,1.935 41.065,0 38.7,0 Z m -25.8,36.55 -6.45,0 0,-19.35 6.45,0 0,19.35 z M 9.675,13.545 c -2.15,0 -3.87,-1.72 -3.87,-3.87 0,-2.15 1.72,-3.87 3.87,-3.87 2.15,0 3.87,1.72 3.87,3.87 0,2.15 -1.72,3.87 -3.87,3.87 z m 26.875,23.005 -6.45,0 0,-11.395 c 0,-1.719916 -1.505,-3.225 -3.225,-3.225 -1.72,0 -3.225,1.505084 -3.225,3.225 l 0,11.395 -6.45,0 0,-19.35 6.45,0 0,2.58 c 1.075,-1.72 3.44,-3.01 5.375,-3.01 4.085,0 7.525,3.44 7.525,7.525 l 0,12.255 z"
     id="path6"
     inkscape:connector-curvature="0"
     style="fill:#ffffff" /><g
     id="g8" /><g
     id="g10" /><g
     id="g12" /><g
     id="g14" /><g
     id="g16" /><g
     id="g18" /><g
     id="g20" /><g
     id="g22" /><g
     id="g24" /><g
     id="g26" /><g
     id="g28" /><g
     id="g30" /><g
     id="g32" /><g
     id="g34" /><g
     id="g36" /></svg>