<?xml version="1.0" encoding="UTF-8" standalone="no"?>
<!-- Generator: Adobe Illustrator 15.1.0, SVG Export Plug-In . SVG Version: 6.00 Build 0)  -->

<svg
   xmlns:dc="http://purl.org/dc/elements/1.1/"
   xmlns:cc="http://creativecommons.org/ns#"
   xmlns:rdf="http://www.w3.org/1999/02/22-rdf-syntax-ns#"
   xmlns:svg="http://www.w3.org/2000/svg"
   xmlns="http://www.w3.org/2000/svg"
   xmlns:sodipodi="http://sodipodi.sourceforge.net/DTD/sodipodi-0.dtd"
   xmlns:inkscape="http://www.inkscape.org/namespaces/inkscape"
   version="1.1"
   id="Layer_1"
   x="0px"
   y="0px"
   width="350"
   height="230"
   viewBox="0 0 350 230"
   enable-background="new 0 0 200 200"
   xml:space="preserve"
   sodipodi:docname="quidco.svg"
   inkscape:version="0.92.2 5c3e80d, 2017-08-06"
   inkscape:export-filename="/nekkon/nekkon/Desktop/projects/portfolio/other/assets/img/projects/quidco.png"
   inkscape:export-xdpi="96"
   inkscape:export-ydpi="96"><metadata
     id="metadata33"><rdf:RDF><cc:Work
         rdf:about=""><dc:format>image/svg+xml</dc:format><dc:type
           rdf:resource="http://purl.org/dc/dcmitype/StillImage" /><dc:title></dc:title></cc:Work></rdf:RDF></metadata><defs
     id="defs31" /><sodipodi:namedview
     pagecolor="#ffffff"
     bordercolor="#666666"
     borderopacity="1"
     objecttolerance="10"
     gridtolerance="10"
     guidetolerance="10"
     inkscape:pageopacity="0"
     inkscape:pageshadow="2"
     inkscape:window-width="1124"
     inkscape:window-height="681"
     id="namedview29"
     showgrid="false"
     inkscape:zoom="1.18"
     inkscape:cx="100"
     inkscape:cy="100"
     inkscape:window-x="133"
     inkscape:window-y="63"
     inkscape:window-maximized="0"
     inkscape:current-layer="Layer_1" /><g
     id="g4545"
     transform="translate(74.092,-14.9995)"><g
       transform="translate(0,30)"
       id="g16"><path
         style="fill:#555555"
         inkscape:connector-curvature="0"
         id="path2"
         d="m 64.284,111.789 c -0.146,0.146 -0.317,0.219 -0.512,0.219 h -4.093 c -0.195,0 -0.365,-0.074 -0.511,-0.221 -0.146,-0.147 -0.22,-0.319 -0.22,-0.517 v -0.885 c -1,0.712 -1.95,1.209 -2.851,1.491 -0.901,0.281 -1.937,0.424 -3.106,0.424 -1.316,0 -2.395,-0.214 -3.235,-0.641 -0.84,-0.426 -1.499,-1.016 -1.974,-1.771 -0.475,-0.755 -0.804,-1.639 -0.987,-2.65 -0.183,-1.011 -0.274,-2.089 -0.274,-3.233 V 91.833 c 0,-0.194 0.079,-0.371 0.238,-0.529 0.158,-0.158 0.334,-0.237 0.53,-0.237 h 4.422 c 0.195,0 0.365,0.079 0.511,0.236 0.147,0.158 0.22,0.335 0.22,0.528 v 12.144 c 0,0.633 0.037,1.168 0.11,1.604 0.073,0.438 0.207,0.791 0.402,1.058 0.195,0.268 0.469,0.456 0.822,0.566 0.353,0.109 0.81,0.163 1.371,0.163 0.536,0 1.084,-0.108 1.644,-0.328 0.561,-0.218 1.157,-0.498 1.791,-0.839 V 91.831 c 0,-0.193 0.074,-0.37 0.22,-0.528 0.146,-0.157 0.316,-0.236 0.512,-0.236 h 4.421 c 0.194,0 0.372,0.079 0.53,0.237 0.158,0.158 0.237,0.335 0.237,0.529 v 19.443 c 0,0.196 -0.072,0.367 -0.218,0.513" /><path
         style="fill:#555555"
         inkscape:connector-curvature="0"
         id="path4"
         d="m 74.041,111.276 c 0,0.195 -0.072,0.366 -0.219,0.513 -0.146,0.146 -0.316,0.219 -0.512,0.219 h -4.459 c -0.195,0 -0.365,-0.073 -0.512,-0.219 -0.146,-0.146 -0.218,-0.317 -0.218,-0.513 V 91.797 c 0,-0.194 0.073,-0.365 0.218,-0.512 0.146,-0.146 0.316,-0.219 0.512,-0.219 h 4.459 c 0.195,0 0.366,0.073 0.512,0.219 0.146,0.146 0.219,0.317 0.219,0.512 z" /><path
         style="fill:#555555"
         inkscape:connector-curvature="0"
         id="path6"
         d="m 95.092,110.326 c 0,0.293 -0.067,0.512 -0.201,0.658 -0.135,0.146 -0.445,0.28 -0.932,0.402 -1.047,0.269 -2.253,0.493 -3.617,0.676 -1.365,0.183 -2.754,0.274 -4.167,0.274 -2.973,0 -5.245,-0.816 -6.816,-2.448 -1.571,-1.632 -2.357,-3.936 -2.357,-6.909 v -2.85 c 0,-2.875 0.754,-5.153 2.266,-6.834 1.511,-1.681 3.812,-2.521 6.908,-2.521 0.365,0 0.822,0.024 1.37,0.072 0.548,0.05 1.09,0.109 1.626,0.184 v -6.323 c 0,-0.195 0.073,-0.365 0.219,-0.512 0.146,-0.146 0.316,-0.219 0.512,-0.219 h 4.423 c 0.194,0 0.372,0.073 0.53,0.219 0.158,0.146 0.237,0.316 0.237,0.512 v 25.619 z m -5.92,-14.472 c -0.438,-0.049 -0.938,-0.093 -1.498,-0.129 -0.562,-0.035 -1.06,-0.055 -1.499,-0.055 -0.659,0 -1.194,0.11 -1.608,0.329 -0.415,0.22 -0.744,0.53 -0.987,0.933 -0.244,0.401 -0.415,0.876 -0.512,1.426 -0.097,0.547 -0.146,1.138 -0.146,1.771 v 2.85 c 0,0.659 0.049,1.262 0.146,1.81 0.098,0.55 0.268,1.024 0.512,1.426 0.243,0.402 0.572,0.713 0.987,0.933 0.414,0.219 0.95,0.328 1.608,0.328 0.608,0 1.175,-0.023 1.699,-0.072 0.523,-0.049 0.956,-0.098 1.297,-0.146 V 95.854 Z" /><path
         style="fill:#555555"
         inkscape:connector-curvature="0"
         id="path8"
         d="m 111.672,111.515 c -0.122,0.11 -0.317,0.2 -0.585,0.274 -0.511,0.121 -1.175,0.242 -1.991,0.365 -0.817,0.121 -1.772,0.183 -2.869,0.183 -2.582,0 -4.648,-0.791 -6.195,-2.376 -1.547,-1.584 -2.321,-3.873 -2.321,-6.871 v -3.069 c 0,-2.997 0.773,-5.287 2.321,-6.872 1.546,-1.583 3.613,-2.374 6.195,-2.374 1.097,0 2.052,0.061 2.869,0.183 0.816,0.122 1.48,0.244 1.991,0.364 0.268,0.074 0.463,0.165 0.585,0.274 0.122,0.11 0.183,0.299 0.183,0.567 v 3.252 c 0,0.196 -0.067,0.347 -0.2,0.457 -0.135,0.11 -0.3,0.165 -0.494,0.165 h -0.073 c -0.682,-0.074 -1.333,-0.135 -1.955,-0.184 -0.621,-0.048 -1.456,-0.072 -2.503,-0.072 -0.414,0 -0.805,0.066 -1.171,0.201 -0.364,0.134 -0.682,0.365 -0.949,0.694 -0.269,0.329 -0.481,0.767 -0.64,1.315 -0.158,0.548 -0.238,1.224 -0.238,2.028 v 3.069 c 0,0.804 0.08,1.48 0.238,2.029 0.158,0.547 0.371,0.986 0.64,1.316 0.268,0.328 0.585,0.56 0.949,0.693 0.366,0.134 0.757,0.201 1.171,0.201 1.047,0 1.882,-0.024 2.503,-0.072 0.622,-0.051 1.273,-0.11 1.955,-0.184 h 0.073 c 0.194,0 0.359,0.055 0.494,0.163 0.133,0.111 0.2,0.264 0.2,0.458 v 3.252 c -0.001,0.272 -0.061,0.46 -0.183,0.571" /><path
         style="fill:#555555"
         inkscape:connector-curvature="0"
         id="path10"
         d="m 131.53,102.834 c 0,1.462 -0.202,2.778 -0.604,3.947 -0.402,1.169 -0.989,2.164 -1.758,2.979 -0.771,0.816 -1.722,1.449 -2.856,1.899 -1.136,0.451 -2.447,0.677 -3.938,0.677 -1.488,0 -2.801,-0.226 -3.937,-0.677 -1.135,-0.45 -2.094,-1.083 -2.874,-1.899 -0.782,-0.815 -1.374,-1.811 -1.776,-2.979 -0.402,-1.168 -0.604,-2.485 -0.604,-3.947 v -2.559 c 0,-1.462 0.202,-2.777 0.604,-3.946 0.402,-1.17 0.994,-2.161 1.776,-2.979 0.78,-0.816 1.739,-1.449 2.874,-1.9 1.136,-0.45 2.448,-0.676 3.937,-0.676 1.49,0 2.802,0.226 3.938,0.676 1.135,0.451 2.086,1.084 2.856,1.9 0.769,0.817 1.355,1.809 1.758,2.979 0.402,1.169 0.604,2.484 0.604,3.946 z m -5.921,-2.559 c 0,-2.971 -1.078,-4.458 -3.235,-4.458 -1.065,0 -1.877,0.371 -2.434,1.115 -0.558,0.742 -0.837,1.857 -0.837,3.343 v 2.559 c 0,1.487 0.279,2.608 0.837,3.362 0.557,0.755 1.368,1.134 2.434,1.134 2.157,0 3.235,-1.499 3.235,-4.496 z" /><path
         style="fill:#1d7bce"
         inkscape:connector-curvature="0"
         id="path12"
         d="m 74.188,87.96 c 0,0.194 -0.073,0.365 -0.219,0.511 -0.146,0.146 -0.317,0.22 -0.512,0.22 h -4.751 c -0.194,0 -0.366,-0.073 -0.511,-0.22 -0.146,-0.146 -0.22,-0.316 -0.22,-0.511 v -3.398 c 0,-0.195 0.074,-0.366 0.22,-0.512 0.146,-0.146 0.317,-0.22 0.511,-0.22 h 4.751 c 0.194,0 0.365,0.073 0.512,0.22 0.146,0.146 0.219,0.316 0.219,0.512 z" /><path
         style="fill:#555555"
         inkscape:connector-curvature="0"
         id="path14"
         d="m 43.008,90.85 c -0.56,-1.486 -1.325,-2.698 -2.298,-3.638 -0.974,-0.938 -2.117,-1.619 -3.43,-2.046 -1.313,-0.427 -2.725,-0.641 -4.232,-0.641 -1.507,0 -2.919,0.214 -4.233,0.641 -1.314,0.427 -2.457,1.108 -3.429,2.046 -0.973,0.939 -1.739,2.151 -2.299,3.638 -0.56,1.485 -0.839,3.289 -0.839,5.408 v 4.35 c 0,2.12 0.279,3.922 0.839,5.409 0.56,1.485 1.326,2.698 2.299,3.636 0.973,0.938 2.116,1.62 3.429,2.047 0.717,0.232 1.465,0.399 2.24,0.505 0.121,0.188 0.25,0.376 0.392,0.564 0.659,0.875 1.613,1.785 2.86,2.73 0.318,0.24 0.683,0.489 1.095,0.748 0.411,0.258 0.827,0.51 1.247,0.757 0.42,0.247 0.826,0.465 1.217,0.655 0.392,0.188 0.717,0.325 0.971,0.414 0.234,0.069 0.455,0.12 0.662,0.152 0.208,0.032 0.38,-0.042 0.518,-0.224 l 2.087,-2.757 c 0.137,-0.183 0.186,-0.387 0.144,-0.614 -0.042,-0.229 -0.152,-0.41 -0.334,-0.548 l -0.068,-0.052 c -0.29,-0.184 -0.63,-0.405 -1.021,-0.666 -0.391,-0.262 -0.799,-0.525 -1.222,-0.792 -0.422,-0.267 -0.83,-0.53 -1.221,-0.791 -0.167,-0.111 -0.321,-0.217 -0.467,-0.317 1.05,-0.427 1.982,-1.029 2.795,-1.812 0.973,-0.938 1.738,-2.15 2.298,-3.636 0.56,-1.487 0.84,-3.289 0.84,-5.409 v -4.35 c 0,-2.118 -0.28,-3.922 -0.84,-5.407 z m -13.341,14.575 c -0.731,-0.979 -1.097,-2.581 -1.097,-4.809 v -4.368 c 0,-2.227 0.365,-3.828 1.097,-4.809 0.731,-0.979 1.864,-1.468 3.398,-1.468 1.534,0 2.674,0.489 3.417,1.468 0.742,0.98 1.114,2.582 1.114,4.809 v 4.368 c 0,2.228 -0.372,3.829 -1.114,4.809 -0.744,0.979 -1.883,1.469 -3.417,1.469 -1.534,0 -2.667,-0.491 -3.398,-1.469 z" /></g><g
       transform="translate(0,30)"
       id="g26"><path
         style="fill:#1d7bce"
         inkscape:connector-curvature="0"
         id="path18"
         d="m 138.563,99.999 c 0,-11.323 9.179,-20.502 20.502,-20.502 11.324,0 20.503,9.179 20.503,20.502 0,11.323 -9.179,20.503 -20.503,20.503 -11.323,0 -20.502,-9.18 -20.502,-20.503" /><path
         style="fill:#ffffff"
         inkscape:connector-curvature="0"
         id="path20"
         d="m 150.817,88.343 v -1.599 c 0.595,-0.434 2.284,-1.051 4.022,-1.051 2.609,0 4.532,1.495 5.248,3.92 -0.741,-0.118 -1.692,-0.231 -2.743,-0.231 -0.546,-1.315 -1.574,-2.249 -3.191,-2.249 -1.554,0 -2.696,0.731 -3.336,1.21" /><path
         style="fill:#ffffff"
         inkscape:connector-curvature="0"
         id="path22"
         d="m 157.937,100.115 v -1.472 -6.215 c -0.482,-0.389 -1.12,-0.802 -2.104,-0.802 -1.411,0 -2.923,0.919 -3.491,3.172 0.352,-0.404 0.836,-0.676 1.449,-0.676 1.416,0 2.142,1.447 2.142,2.638 0,1.193 -0.726,2.641 -2.142,2.641 -0.629,0 -1.122,-0.286 -1.477,-0.708 0.348,1.339 1.146,2.165 2.469,2.165 0.482,0 0.917,-0.158 1.331,-0.401 l -0.007,1.359 c -0.656,0.411 -1.392,0.711 -2.283,0.711 -2.561,0 -4.366,-2.011 -4.366,-5.438 0,-3.041 1.851,-6.695 6.902,-6.695 1.827,0 3.358,0.342 3.997,0.457 -0.023,0.754 -0.069,1.69 -0.069,2.604 v 12.104 c 0,0.503 0.023,0.846 0.479,0.846 0.572,0 2.559,-0.14 3.601,-0.408 l 0.178,1.52 c -1.249,0.296 -2.825,0.802 -5.295,0.802 -0.892,0 -1.314,-0.563 -1.314,-2.759 z" /><path
         style="fill:#ffffff"
         inkscape:connector-curvature="0"
         id="path24"
         d="m 170.844,107.396 c 0,2.922 -3.152,5.882 -8.643,5.882 -1.606,0 -3.064,-0.205 -4.314,-0.584 v -2.148 c 1.125,0.311 2.591,0.488 4.415,0.488 3.435,0 6.314,-1.879 6.56,-3.951 0.021,-0.173 0.019,-0.349 0.019,-0.349 0.016,-0.535 -0.257,-0.751 -0.659,-0.751 -0.503,0 -0.985,0.08 -1.287,0.122 V 104.8 c 0.824,0.038 2.11,0.118 2.735,0.118 0.781,0 1.928,-0.08 2.731,-0.118 v 1.305 c -0.321,-0.042 -0.763,-0.122 -1.267,-0.122 -0.402,0 -0.36,0.292 -0.316,0.747 0.03,0.316 0.026,0.561 0.026,0.666" /></g></g></svg>