<?xml version="1.0" encoding="UTF-8" standalone="no"?>
<!-- Created with Inkscape (http://www.inkscape.org/) -->

<svg
   xmlns:dc="http://purl.org/dc/elements/1.1/"
   xmlns:cc="http://creativecommons.org/ns#"
   xmlns:rdf="http://www.w3.org/1999/02/22-rdf-syntax-ns#"
   xmlns:svg="http://www.w3.org/2000/svg"
   xmlns="http://www.w3.org/2000/svg"
   xmlns:sodipodi="http://sodipodi.sourceforge.net/DTD/sodipodi-0.dtd"
   xmlns:inkscape="http://www.inkscape.org/namespaces/inkscape"
   width="210mm"
   height="297mm"
   viewBox="0 0 744.09448819 1052.3622047"
   id="svg8142"
   version="1.1"
   inkscape:version="0.91 r13725"
   sodipodi:docname="favico.svg">
  <defs
     id="defs8144" />
  <sodipodi:namedview
     id="base"
     pagecolor="#ffffff"
     bordercolor="#666666"
     borderopacity="1.0"
     inkscape:pageopacity="0.0"
     inkscape:pageshadow="2"
     inkscape:zoom="1.979899"
     inkscape:cx="105.44334"
     inkscape:cy="1001.7757"
     inkscape:document-units="px"
     inkscape:current-layer="layer1"
     showgrid="false"
     inkscape:window-width="1920"
     inkscape:window-height="1138"
     inkscape:window-x="-8"
     inkscape:window-y="-8"
     inkscape:window-maximized="1" />
  <metadata
     id="metadata8147">
    <rdf:RDF>
      <cc:Work
         rdf:about="">
        <dc:format>image/svg+xml</dc:format>
        <dc:type
           rdf:resource="http://purl.org/dc/dcmitype/StillImage" />
        <dc:title></dc:title>
      </cc:Work>
    </rdf:RDF>
  </metadata>
  <g
     inkscape:label="Layer 1"
     inkscape:groupmode="layer"
     id="layer1">
    <g
       id="g8174"
       transform="translate(23.045743,-690.58246)"
       style="fill:#000000">
      <g
         transform="matrix(1.25,0,0,1.25,-157.60848,690.26206)"
         id="g5502"
         style="fill:#000000">
        <path
           inkscape:connector-curvature="0"
           id="path5504"
           style="fill:#000000;fill-opacity:1;fill-rule:nonzero;stroke:none"
           d="m 127.8933,0.30000001 c 1.04859,0 1.89331,0.84470359 1.89331,1.89330119 l 0,21.7875278 c 0,1.048598 -0.84472,1.893301 -1.89331,1.893301 -1.0486,0 -1.8933,-0.844703 -1.8933,-1.893301 l 0,-21.7875278 c 0,-1.0485976 0.8447,-1.89330119 1.8933,-1.89330119 z" />
      </g>
      <g
         transform="matrix(1.25,0,0,1.25,-23.051284,617.31646)"
         id="g5506"
         style="fill:#000000">
        <path
           inkscape:connector-curvature="0"
           id="path5508"
           style="fill:#000000;fill-opacity:1;fill-rule:nonzero;stroke:none"
           d="M 0.30962804,69.463051 C 0.87761843,68.589218 2.0572908,68.341637 2.9311221,68.909622 L 21.16507,80.837425 c 0.873832,0.567986 1.121418,1.747658 0.553428,2.621491 -0.567989,0.873832 -1.747663,1.121422 -2.621494,0.553428 L 0.86305457,72.084549 C -0.01077676,71.516556 -0.25836229,70.336884 0.30962804,69.463051 Z" />
      </g>
      <g
         transform="matrix(1.25,0,0,1.25,-198.19064,690.58246)"
         id="g5510"
         style="fill:#000000">
        <path
           inkscape:connector-curvature="0"
           id="path5512"
           style="fill:#000000;fill-opacity:1;fill-rule:nonzero;stroke:none"
           d="M 165.89331,0 C 164.84471,0 164,0.84470367 164,1.8933012 l 0,21.7875288 c 0,1.048597 0.84471,1.893301 1.89331,1.893301 1.04858,0 1.8933,-0.844704 1.8933,-1.893301 l 0,-21.7875288 C 167.78661,0.84470367 166.94189,0 165.89331,0 Z" />
      </g>
      <g
         transform="matrix(1.25,0,0,1.25,-198.94294,617.63696)"
         id="g5514"
         style="fill:#000000">
        <path
           inkscape:connector-curvature="0"
           id="path5516"
           style="fill:#000000;fill-opacity:1;fill-rule:nonzero;stroke:none"
           d="m 186.41849,69.163048 c -0.568,-0.873825 -1.74768,-1.121414 -2.62151,-0.553421 l -18.23395,11.927795 c -0.87382,0.567986 -1.12141,1.747658 -0.55342,2.621491 0.568,0.873832 1.74767,1.121421 2.62149,0.553428 l 18.23395,-11.927795 c 0.8884,-0.567993 1.13599,-1.747666 0.55344,-2.621498 z" />
      </g>
      <g
         transform="matrix(1.25,0,0,1.25,-291.85477,542.45256)"
         id="g5518"
         style="fill:#000000">
        <path
           inkscape:connector-curvature="0"
           id="path5520"
           style="fill:#000000;fill-opacity:1;fill-rule:nonzero;stroke:none"
           d="m 255.18457,139.56306 1.09229,1.66028 c 0.56799,0.87383 0.3204,2.0535 -0.55343,2.62149 -0.87382,0.568 -2.05349,0.32041 -2.62149,-0.55342 l -1.0923,-1.66028 c -0.56797,-0.87384 -0.3204,-2.05351 0.55344,-2.6215 0.87382,-0.568 2.0535,-0.32041 2.62149,0.55343 z" />
      </g>
    </g>
  </g>
</svg>
